<?xml version="1.0" encoding="UTF-8" standalone="no"?><!DOCTYPE svg PUBLIC "-//W3C//DTD SVG 1.1//EN" "http://www.w3.org/Graphics/SVG/1.1/DTD/svg11.dtd"><svg width="100%" height="100%" viewBox="0 0 267 267" version="1.1" xmlns="http://www.w3.org/2000/svg" xmlns:xlink="http://www.w3.org/1999/xlink" xml:space="preserve" xmlns:serif="http://www.serif.com/" style="fill-rule:evenodd;clip-rule:evenodd;stroke-linejoin:round;stroke-miterlimit:2;"><rect id="Artboard1" x="0" y="0" width="266.667" height="266.667" style="fill:none;"/><g id="Artboard11" serif:id="Artboard1"><g id="spotify-music-icon"><path id="Spotify" d="M212,118.667c-42.667,-25.334 -114,-28 -154.667,-15.334c-6.666,2 -13.333,-2 -15.333,-8c-2,-6.666 2,-13.333 8,-15.333c47.333,-14 125.333,-11.333 174.667,18c6,3.333 8,11.333 4.666,17.333c-3.333,4.667 -11.333,6.667 -17.333,3.334m-1.333,37.333c-3.334,4.667 -9.334,6.667 -14,3.333c-36,-22 -90.667,-28.666 -132.667,-15.333c-5.333,1.333 -11.333,-1.333 -12.667,-6.667c-1.333,-5.333 1.334,-11.333 6.667,-12.666c48.667,-14.667 108.667,-7.334 150,18c4,2 6,8.666 2.667,13.333m-16,36.667c-2.667,4 -7.334,5.333 -11.334,2.666c-31.333,-19.333 -70.666,-23.333 -117.333,-12.666c-4.667,1.333 -8.667,-2 -10,-6c-1.333,-4.667 2,-8.667 6,-10c50.667,-11.334 94.667,-6.667 129.333,14.666c4.667,2 5.334,7.334 3.334,11.334m-61.334,-192.667c-73.333,-0 -133.333,60 -133.333,133.333c0,73.334 60,133.334 133.333,133.334c73.334,-0 133.334,-60 133.334,-133.334c-0,-73.333 -59.334,-133.333 -133.334,-133.333" style="fill:#00da5a;"/></g></g></svg>